<svg width="29" height="29" viewBox="0 0 29 29" fill="none" xmlns="http://www.w3.org/2000/svg">
<mask id="path-1-inside-1" fill="white">
<path d="M2.71875 1.8125C2.4784 1.8125 2.24789 1.90798 2.07793 2.07793C1.90798 2.24789 1.8125 2.4784 1.8125 2.71875V8.15625C1.8125 8.3966 1.71702 8.62711 1.54707 8.79707C1.37711 8.96702 1.1466 9.0625 0.90625 9.0625C0.665898 9.0625 0.435389 8.96702 0.265435 8.79707C0.0954797 8.62711 0 8.3966 0 8.15625V2.71875C0 1.99769 0.286439 1.30617 0.796303 0.796303C1.30617 0.286439 1.99769 0 2.71875 0L8.15625 0C8.3966 0 8.62711 0.0954797 8.79707 0.265435C8.96702 0.435389 9.0625 0.665898 9.0625 0.90625C9.0625 1.1466 8.96702 1.37711 8.79707 1.54707C8.62711 1.71702 8.3966 1.8125 8.15625 1.8125H2.71875ZM19.9375 0.90625C19.9375 0.665898 20.033 0.435389 20.2029 0.265435C20.3729 0.0954797 20.6034 0 20.8438 0L26.2812 0C27.0023 0 27.6938 0.286439 28.2037 0.796303C28.7136 1.30617 29 1.99769 29 2.71875V8.15625C29 8.3966 28.9045 8.62711 28.7346 8.79707C28.5646 8.96702 28.3341 9.0625 28.0938 9.0625C27.8534 9.0625 27.6229 8.96702 27.4529 8.79707C27.283 8.62711 27.1875 8.3966 27.1875 8.15625V2.71875C27.1875 2.4784 27.092 2.24789 26.9221 2.07793C26.7521 1.90798 26.5216 1.8125 26.2812 1.8125H20.8438C20.6034 1.8125 20.3729 1.71702 20.2029 1.54707C20.033 1.37711 19.9375 1.1466 19.9375 0.90625ZM0.90625 19.9375C1.1466 19.9375 1.37711 20.033 1.54707 20.2029C1.71702 20.3729 1.8125 20.6034 1.8125 20.8438V26.2812C1.8125 26.5216 1.90798 26.7521 2.07793 26.9221C2.24789 27.092 2.4784 27.1875 2.71875 27.1875H8.15625C8.3966 27.1875 8.62711 27.283 8.79707 27.4529C8.96702 27.6229 9.0625 27.8534 9.0625 28.0938C9.0625 28.3341 8.96702 28.5646 8.79707 28.7346C8.62711 28.9045 8.3966 29 8.15625 29H2.71875C1.99769 29 1.30617 28.7136 0.796303 28.2037C0.286439 27.6938 0 27.0023 0 26.2812L0 20.8438C0 20.6034 0.0954797 20.3729 0.265435 20.2029C0.435389 20.033 0.665898 19.9375 0.90625 19.9375ZM28.0938 19.9375C28.3341 19.9375 28.5646 20.033 28.7346 20.2029C28.9045 20.3729 29 20.6034 29 20.8438V26.2812C29 27.0023 28.7136 27.6938 28.2037 28.2037C27.6938 28.7136 27.0023 29 26.2812 29H20.8438C20.6034 29 20.3729 28.9045 20.2029 28.7346C20.033 28.5646 19.9375 28.3341 19.9375 28.0938C19.9375 27.8534 20.033 27.6229 20.2029 27.4529C20.3729 27.283 20.6034 27.1875 20.8438 27.1875H26.2812C26.5216 27.1875 26.7521 27.092 26.9221 26.9221C27.092 26.7521 27.1875 26.5216 27.1875 26.2812V20.8438C27.1875 20.6034 27.283 20.3729 27.4529 20.2029C27.6229 20.033 27.8534 19.9375 28.0938 19.9375Z"/>
</mask>
<path d="M2.71875 1.8125V-0.1875V1.8125ZM1.8125 2.71875H-0.1875H1.8125ZM1.8125 8.15625H3.8125H1.8125ZM0 8.15625H-2H0ZM0 2.71875H-2H0ZM2.71875 0V-2V0ZM8.15625 1.8125V3.8125V1.8125ZM20.8438 0V-2V0ZM26.2812 0V-2V0ZM29 2.71875H31H29ZM26.2812 1.8125V-0.1875V1.8125ZM20.8438 1.8125V3.8125V1.8125ZM1.8125 20.8438H3.8125H1.8125ZM1.8125 26.2812H-0.1875H1.8125ZM2.71875 29V31V29ZM0 26.2812H-2H0ZM0 20.8438H-2H0ZM29 26.2812H31H29ZM26.2812 29V31V29ZM2.71875 -0.1875C1.94796 -0.1875 1.20875 0.118693 0.663721 0.663721L3.49215 3.49215C3.28703 3.69727 3.00883 3.8125 2.71875 3.8125V-0.1875ZM0.663721 0.663721C0.118693 1.20875 -0.1875 1.94796 -0.1875 2.71875H3.8125C3.8125 3.00883 3.69727 3.28703 3.49215 3.49215L0.663721 0.663721ZM-0.1875 2.71875V8.15625H3.8125V2.71875H-0.1875ZM-0.1875 8.15625C-0.1875 7.86617 -0.0722658 7.58797 0.132852 7.38285L2.96128 10.2113C3.50631 9.66625 3.8125 8.92704 3.8125 8.15625H-0.1875ZM0.132852 7.38285C0.337969 7.17773 0.616169 7.0625 0.90625 7.0625V11.0625C1.67704 11.0625 2.41625 10.7563 2.96128 10.2113L0.132852 7.38285ZM0.90625 7.0625C1.19633 7.0625 1.47453 7.17773 1.67965 7.38285L-1.14878 10.2113C-0.603752 10.7563 0.135464 11.0625 0.90625 11.0625V7.0625ZM1.67965 7.38285C1.88477 7.58797 2 7.86617 2 8.15625H-2C-2 8.92704 -1.69381 9.66625 -1.14878 10.2113L1.67965 7.38285ZM2 8.15625V2.71875H-2V8.15625H2ZM2 2.71875C2 2.52813 2.07573 2.34531 2.21052 2.21052L-0.61791 -0.61791C-1.50285 0.267027 -2 1.46726 -2 2.71875H2ZM2.21052 2.21052C2.34531 2.07573 2.52813 2 2.71875 2V-2C1.46726 -2 0.267027 -1.50285 -0.61791 -0.61791L2.21052 2.21052ZM2.71875 2H8.15625V-2H2.71875V2ZM8.15625 2C7.86617 2 7.58797 1.88477 7.38285 1.67965L10.2113 -1.14878C9.66625 -1.69381 8.92704 -2 8.15625 -2V2ZM7.38285 1.67965C7.17773 1.47453 7.0625 1.19633 7.0625 0.90625H11.0625C11.0625 0.135464 10.7563 -0.603752 10.2113 -1.14878L7.38285 1.67965ZM7.0625 0.90625C7.0625 0.616169 7.17773 0.337969 7.38285 0.132852L10.2113 2.96128C10.7563 2.41625 11.0625 1.67704 11.0625 0.90625H7.0625ZM7.38285 0.132852C7.58797 -0.0722658 7.86617 -0.1875 8.15625 -0.1875V3.8125C8.92704 3.8125 9.66625 3.50631 10.2113 2.96128L7.38285 0.132852ZM8.15625 -0.1875H2.71875V3.8125H8.15625V-0.1875ZM21.9375 0.90625C21.9375 1.19633 21.8223 1.47453 21.6171 1.67965L18.7887 -1.14878C18.2437 -0.603749 17.9375 0.135468 17.9375 0.90625H21.9375ZM21.6171 1.67965C21.412 1.88477 21.1338 2 20.8438 2V-2C20.073 -2 19.3337 -1.69381 18.7887 -1.14878L21.6171 1.67965ZM20.8438 2H26.2812V-2H20.8438V2ZM26.2812 2C26.4719 2 26.6547 2.07573 26.7895 2.21052L29.6179 -0.61791C28.733 -1.50285 27.5327 -2 26.2812 -2V2ZM26.7895 2.21052C26.9243 2.34531 27 2.52813 27 2.71875H31C31 1.46726 30.5028 0.267028 29.6179 -0.61791L26.7895 2.21052ZM27 2.71875V8.15625H31V2.71875H27ZM27 8.15625C27 7.86617 27.1152 7.58797 27.3204 7.38285L30.1488 10.2113C30.6938 9.66625 31 8.92703 31 8.15625H27ZM27.3204 7.38285C27.5255 7.17773 27.8037 7.0625 28.0938 7.0625V11.0625C28.8645 11.0625 29.6038 10.7563 30.1488 10.2113L27.3204 7.38285ZM28.0938 7.0625C28.3838 7.0625 28.662 7.17773 28.8671 7.38285L26.0387 10.2113C26.5837 10.7563 27.323 11.0625 28.0938 11.0625V7.0625ZM28.8671 7.38285C29.0723 7.58797 29.1875 7.86617 29.1875 8.15625H25.1875C25.1875 8.92703 25.4937 9.66625 26.0387 10.2113L28.8671 7.38285ZM29.1875 8.15625V2.71875H25.1875V8.15625H29.1875ZM29.1875 2.71875C29.1875 1.94797 28.8813 1.20875 28.3363 0.663721L25.5079 3.49215C25.3027 3.28703 25.1875 3.00883 25.1875 2.71875H29.1875ZM28.3363 0.663721C27.7913 0.118692 27.052 -0.1875 26.2812 -0.1875V3.8125C25.9912 3.8125 25.713 3.69727 25.5079 3.49215L28.3363 0.663721ZM26.2812 -0.1875H20.8438V3.8125H26.2812V-0.1875ZM20.8438 -0.1875C21.1338 -0.1875 21.412 -0.0722672 21.6171 0.132852L18.7887 2.96128C19.3337 3.50631 20.073 3.8125 20.8438 3.8125V-0.1875ZM21.6171 0.132852C21.8223 0.337973 21.9375 0.616173 21.9375 0.90625H17.9375C17.9375 1.67703 18.2437 2.41625 18.7887 2.96128L21.6171 0.132852ZM0.90625 21.9375C0.616173 21.9375 0.337973 21.8223 0.132852 21.6171L2.96128 18.7887C2.41625 18.2437 1.67703 17.9375 0.90625 17.9375V21.9375ZM0.132852 21.6171C-0.0722672 21.412 -0.1875 21.1338 -0.1875 20.8438H3.8125C3.8125 20.073 3.50631 19.3337 2.96128 18.7887L0.132852 21.6171ZM-0.1875 20.8438V26.2812H3.8125V20.8438H-0.1875ZM-0.1875 26.2812C-0.1875 27.052 0.118692 27.7913 0.663721 28.3363L3.49215 25.5079C3.69727 25.713 3.8125 25.9912 3.8125 26.2812H-0.1875ZM0.663721 28.3363C1.20875 28.8813 1.94797 29.1875 2.71875 29.1875V25.1875C3.00883 25.1875 3.28703 25.3027 3.49215 25.5079L0.663721 28.3363ZM2.71875 29.1875H8.15625V25.1875H2.71875V29.1875ZM8.15625 29.1875C7.86617 29.1875 7.58797 29.0723 7.38285 28.8671L10.2113 26.0387C9.66625 25.4937 8.92703 25.1875 8.15625 25.1875V29.1875ZM7.38285 28.8671C7.17773 28.662 7.0625 28.3838 7.0625 28.0938H11.0625C11.0625 27.323 10.7563 26.5837 10.2113 26.0387L7.38285 28.8671ZM7.0625 28.0938C7.0625 27.8037 7.17773 27.5255 7.38285 27.3204L10.2113 30.1488C10.7563 29.6038 11.0625 28.8645 11.0625 28.0938H7.0625ZM7.38285 27.3204C7.58797 27.1152 7.86617 27 8.15625 27V31C8.92703 31 9.66625 30.6938 10.2113 30.1488L7.38285 27.3204ZM8.15625 27H2.71875V31H8.15625V27ZM2.71875 27C2.52813 27 2.34531 26.9243 2.21052 26.7895L-0.61791 29.6179C0.267028 30.5028 1.46726 31 2.71875 31V27ZM2.21052 26.7895C2.07573 26.6547 2 26.4719 2 26.2812H-2C-2 27.5327 -1.50285 28.733 -0.61791 29.6179L2.21052 26.7895ZM2 26.2812V20.8438H-2V26.2812H2ZM2 20.8438C2 21.1338 1.88477 21.412 1.67965 21.6171L-1.14878 18.7887C-1.69381 19.3337 -2 20.073 -2 20.8438H2ZM1.67965 21.6171C1.47453 21.8223 1.19633 21.9375 0.90625 21.9375V17.9375C0.135468 17.9375 -0.603749 18.2437 -1.14878 18.7887L1.67965 21.6171ZM28.0938 21.9375C27.8037 21.9375 27.5255 21.8223 27.3204 21.6171L30.1488 18.7887C29.6037 18.2437 28.8645 17.9375 28.0938 17.9375V21.9375ZM27.3204 21.6171C27.1152 21.412 27 21.1338 27 20.8438H31C31 20.073 30.6938 19.3338 30.1488 18.7887L27.3204 21.6171ZM27 20.8438V26.2812H31V20.8438H27ZM27 26.2812C27 26.4719 26.9243 26.6547 26.7895 26.7895L29.6179 29.6179C30.5028 28.733 31 27.5327 31 26.2812H27ZM26.7895 26.7895C26.6547 26.9243 26.4719 27 26.2812 27V31C27.5327 31 28.733 30.5028 29.6179 29.6179L26.7895 26.7895ZM26.2812 27H20.8438V31H26.2812V27ZM20.8438 27C21.1338 27 21.412 27.1152 21.6171 27.3204L18.7887 30.1488C19.3338 30.6938 20.073 31 20.8438 31V27ZM21.6171 27.3204C21.8223 27.5255 21.9375 27.8037 21.9375 28.0938H17.9375C17.9375 28.8645 18.2437 29.6037 18.7887 30.1488L21.6171 27.3204ZM21.9375 28.0938C21.9375 28.3838 21.8223 28.662 21.6171 28.8671L18.7887 26.0387C18.2437 26.5838 17.9375 27.323 17.9375 28.0938H21.9375ZM21.6171 28.8671C21.412 29.0723 21.1338 29.1875 20.8438 29.1875V25.1875C20.073 25.1875 19.3338 25.4937 18.7887 26.0387L21.6171 28.8671ZM20.8438 29.1875H26.2812V25.1875H20.8438V29.1875ZM26.2812 29.1875C27.052 29.1875 27.7912 28.8813 28.3363 28.3363L25.5079 25.5079C25.713 25.3027 25.9912 25.1875 26.2812 25.1875V29.1875ZM28.3363 28.3363C28.8813 27.7912 29.1875 27.052 29.1875 26.2812H25.1875C25.1875 25.9912 25.3027 25.713 25.5079 25.5079L28.3363 28.3363ZM29.1875 26.2812V20.8438H25.1875V26.2812H29.1875ZM29.1875 20.8438C29.1875 21.1338 29.0723 21.412 28.8671 21.6171L26.0387 18.7887C25.4937 19.3338 25.1875 20.073 25.1875 20.8438H29.1875ZM28.8671 21.6171C28.662 21.8223 28.3838 21.9375 28.0938 21.9375V17.9375C27.323 17.9375 26.5838 18.2437 26.0387 18.7887L28.8671 21.6171Z" fill="#FEDB29" mask="url(#path-1-inside-1)"/>
<path d="M5.76057 24C5.75763 23.9999 5.75272 23.9996 5.74605 23.9991C5.72479 23.9976 5.68788 23.9941 5.64096 23.9863C5.54239 23.9698 5.42625 23.9388 5.32221 23.8868C5.22209 23.8368 5.15239 23.7774 5.10549 23.707C5.06276 23.6429 5 23.5125 5 23.25C5 22.6318 5.33804 21.1387 6.67586 19.8009C7.98436 18.4923 10.3359 17.25 14.5 17.25C18.6641 17.25 21.0156 18.4923 22.3241 19.8009C23.662 21.1387 24 22.6318 24 23.25C24 23.5125 23.9372 23.6429 23.8945 23.707C23.8476 23.7774 23.7779 23.8368 23.6778 23.8868C23.5738 23.9388 23.4576 23.9698 23.359 23.9863C23.3121 23.9941 23.2752 23.9976 23.2539 23.9991C23.2473 23.9996 23.2424 23.9999 23.2394 24H5.76057ZM18.75 9.25C18.75 10.3772 18.3022 11.4582 17.5052 12.2552C16.7082 13.0522 15.6272 13.5 14.5 13.5C13.3728 13.5 12.2918 13.0522 11.4948 12.2552C10.6978 11.4582 10.25 10.3772 10.25 9.25C10.25 8.12283 10.6978 7.04183 11.4948 6.2448C12.2918 5.44777 13.3728 5 14.5 5C15.6272 5 16.7082 5.44777 17.5052 6.2448C18.3022 7.04183 18.75 8.12283 18.75 9.25Z" stroke="#FEDB29" stroke-width="2"/>
</svg>
