<svg width="23" height="26" viewBox="0 0 23 26" fill="none" xmlns="http://www.w3.org/2000/svg">
<path d="M13.9418 8.01446V8.51446H14.4418H22.5V19.0028H20.8605H20.3605V19.5028V23.1748L17.2813 19.1968L17.1312 19.0029H16.8859H9.05816V12.8517V12.3517H8.55816H6.11409H5.86883L5.7187 12.5456L2.63954 16.5237V12.8517V12.3517H2.13954H0.5V1.86328H13.9418V8.01446ZM8.55816 11.5377H9.05816V11.0377V8.51446H12.8372H13.3372V8.01446V3.17724V2.67724H12.8372H1.60465H1.10465V3.17724V11.0377V11.5377H1.60465H3.24419V13.1587V14.6215L4.13959 13.4647L5.63117 11.5377H8.55816ZM19.7558 18.1889H21.3953H21.3954H21.8954V17.6889V9.82841V9.32841H21.3954H10.1628H9.66281V9.82841V17.6889V18.1889H10.1628H17.3688L18.8604 20.1159L19.7558 21.2727V19.8099V18.1889Z" stroke="#FEDB29"/>
<path d="M8.23914 5.09951C8.15572 4.91086 8.04661 4.75846 7.9118 4.64238C7.77699 4.52629 7.62618 4.44169 7.4593 4.38842C7.29241 4.33525 7.1276 4.30859 6.96507 4.30859C6.65699 4.30859 6.38311 4.39091 6.14349 4.55529C5.90379 4.71982 5.72837 4.94961 5.61719 5.24459L6.39384 5.86859C6.41954 5.83477 6.44622 5.79242 6.47407 5.74164C6.50183 5.69086 6.53606 5.64135 6.57676 5.5929C6.61737 5.54461 6.66548 5.50348 6.72119 5.46955C6.77676 5.43573 6.84315 5.41877 6.92015 5.41877C7.02284 5.41877 7.11268 5.45143 7.18972 5.51673C7.26676 5.58204 7.30526 5.67029 7.30526 5.78155C7.30526 5.88312 7.27319 5.9763 7.20899 6.0609C7.1448 6.14555 7.06879 6.22178 6.98115 6.28947C6.89337 6.35726 6.80564 6.4153 6.718 6.4636C6.63022 6.51204 6.56284 6.55069 6.5158 6.57968C6.40027 6.64753 6.30822 6.72243 6.2398 6.80459C6.1713 6.88691 6.11995 6.97273 6.08577 7.06216C6.05149 7.15168 6.03006 7.24604 6.02157 7.34511C6.0129 7.44434 6.00873 7.54463 6.00873 7.64624H7.00361C7.00361 7.5689 7.0303 7.50111 7.08384 7.44307C7.1373 7.38502 7.2058 7.32947 7.28922 7.2762C7.37264 7.22303 7.46352 7.16986 7.56204 7.11659C7.66041 7.06343 7.75673 7.00051 7.85088 6.92794C8.04346 6.78281 8.17715 6.61477 8.25204 6.42368C8.32687 6.23259 8.36434 6.02099 8.36434 5.78882C8.3643 5.518 8.32261 5.28816 8.23914 5.09951Z" fill="#FEDB29"/>
<path d="M7.02223 8.33594H6.02734V9.52589H7.02223V8.33594Z" fill="#FEDB29"/>
<path d="M16.4813 10.9746H15.2617V14.0003H16.4813V10.9746Z" fill="#FEDB29"/>
<path d="M16.4813 14.8418H15.2617V16.1769H16.4813V14.8418Z" fill="#FEDB29"/>
</svg>
