<svg width="48" height="48" viewBox="0 0 48 48" fill="none" xmlns="http://www.w3.org/2000/svg">
<g clip-path="url(#clip0_9531_68825)">
<path d="M35.0955 21.9134L25.3061 21.913C24.8738 21.913 24.5234 22.2633 24.5234 22.6956V25.8229C24.5234 26.255 24.8738 26.6055 25.3061 26.6055H30.8188C30.2152 28.1721 29.0885 29.4841 27.651 30.3177L30.0017 34.3869C33.7724 32.2061 36.0017 28.3797 36.0017 24.0964C36.0017 23.4865 35.9567 23.0505 35.8668 22.5596C35.7985 22.1866 35.4747 21.9134 35.0955 21.9134Z" fill="#167EE6"/>
<path d="M24.0003 31.3042C21.3024 31.3042 18.9472 29.8302 17.6823 27.6489L13.6133 29.9943C15.684 33.5831 19.5631 35.9999 24.0003 35.9999C26.177 35.9999 28.2309 35.4138 30.0003 34.3924V34.3868L27.6496 30.3176C26.5744 30.9412 25.3302 31.3042 24.0003 31.3042Z" fill="#12B347"/>
<path d="M30 34.3924V34.3868L27.6494 30.3176C26.5741 30.9412 25.33 31.3042 24 31.3042V35.9999C26.1767 35.9999 28.2308 35.4138 30 34.3924Z" fill="#0F993E"/>
<path d="M16.6957 24C16.6957 22.6702 17.0586 21.4261 17.682 20.351L13.613 18.0056C12.586 19.7694 12 21.8177 12 24C12 26.1823 12.586 28.2307 13.613 29.9945L17.682 27.6491C17.0586 26.5739 16.6957 25.3298 16.6957 24Z" fill="#FFD500"/>
<path d="M24.0003 16.6957C25.7595 16.6957 27.3755 17.3208 28.6377 18.3606C28.9491 18.6171 29.4017 18.5986 29.6869 18.3134L31.9027 16.0976C32.2263 15.774 32.2033 15.2442 31.8575 14.9443C29.7428 13.1097 26.9912 12 24.0003 12C19.5631 12 15.684 14.4167 13.6133 18.0056L17.6823 20.3509C18.9472 18.1697 21.3024 16.6957 24.0003 16.6957Z" fill="#FF4B26"/>
<path d="M28.6374 18.3606C28.9488 18.6171 29.4015 18.5986 29.6866 18.3134L31.9024 16.0976C32.226 15.774 32.2029 15.2442 31.8573 14.9443C29.7425 13.1096 26.991 12 24 12V16.6957C25.7592 16.6957 27.3752 17.3208 28.6374 18.3606Z" fill="#D93F21"/>
</g>
<rect x="0.5" y="0.5" width="47" height="47" rx="23.5" stroke="#EDEDED"/>
<defs>
<clipPath id="clip0_9531_68825">
<rect width="24" height="24" fill="white" transform="translate(12 12)"/>
</clipPath>
</defs>
</svg>
